/* XPM */
static char * pihole_xpm[] = {
"12 36 87 1",
" 	c None",
".	c #22B125",
"+	c #22BE26",
"@	c #25C728",
"#	c #23B326",
"$	c #23BD26",
"%	c #24C728",
"&	c #25D12A",
"*	c #25D129",
"=	c #26DC2A",
"-	c #2AFA2D",
";	c #29FC2E",
">	c #2AFC2D",
",	c #23BD25",
"'	c #27E52C",
")	c #29F12E",
"!	c #29FB2E",
"~	c #24C729",
"{	c #26DC2B",
"]	c #27E72C",
"^	c #28F02D",
"/	c #29FB2F",
"(	c #27DC2B",
"_	c #4DC226",
":	c #3ED52A",
"<	c #F70E19",
"[	c #F60D1A",
"}	c #EE0C18",
"|	c #F60D1B",
"1	c #AE060F",
"2	c #B10810",
"3	c #95060C",
"4	c #CF0915",
"5	c #D30A16",
"6	c #E80C18",
"7	c #F40D19",
"8	c #97060C",
"9	c #96060C",
"0	c #A1080F",
"a	c #A4090E",
"b	c #F60C19",
"c	c #F50D1B",
"d	c #9E070E",
"e	c #98060C",
"f	c #95060D",
"g	c #96060B",
"h	c #D30A15",
"i	c #ED0D18",
"j	c #9E060E",
"k	c #9C060D",
"l	c #9F060E",
"m	c #ED0B19",
"n	c #F00C19",
"o	c #6E6E6E",
"p	c #727272",
"q	c #767676",
"r	c #6B6B6B",
"s	c #737373",
"t	c #787878",
"u	c #7B7B7B",
"v	c #707070",
"w	c #7D7D7D",
"x	c #828282",
"y	c #929292",
"z	c #939393",
"A	c #7C7C7C",
"B	c #878787",
"C	c #8D8D8D",
"D	c #8C8C8C",
"E	c #8B8B8B",
"F	c #898989",
"G	c #626262",
"H	c #696969",
"I	c #565656",
"J	c #6C6C6C",
"K	c #6F6F6F",
"L	c #7A7A7A",
"M	c #808080",
"N	c #4E4E4E",
"O	c #5E5E5E",
"P	c #545454",
"Q	c #818181",
"R	c #535353",
"S	c #4F4F4F",
"T	c #525252",
"U	c #515151",
"V	c #7E7E7E",
".+@         ",
"#$%&        ",
" $%*=  -;>  ",
" ,%*=')!;   ",
"  ~*{]^!/   ",
"    (_:     ",
"    <[[}    ",
"   |[[[[1   ",
"  [[[[[[23  ",
" 456[[[7899 ",
"0999abcd9993",
"e9993  9999f",
"8999g  9999e",
" 999h[[ij9k ",
"  9e[[[[[[  ",
"   l[[[[[   ",
"    m[[[    ",
"     n[     ",
"opq         ",
"rstu        ",
" vtwx  yyz  ",
" vqAxBCyy   ",
"  quxBDyy   ",
"    xtx     ",
"    xxEx    ",
"   xxxxFG   ",
"  xxxxxxHI  ",
" JKLxxxMNON ",
"PNNNIQQRNNNN",
"SNNNN  NNNNN",
"NNNNN  NNNNS",
" NNNKxxwTNU ",
"  NSxxxxxx  ",
"   Rxxxxx   ",
"    Axxx    ",
"     Vx     "};
